<?xml version="1.0"?>
<svg xmlns="http://www.w3.org/2000/svg" xmlns:xlink="http://www.w3.org/1999/xlink" version="1.1" id="Capa_1" x="0px" y="0px" viewBox="0 0 392 392" style="enable-background:new 0 0 392 392;" xml:space="preserve" width="512px" height="512px"><g><g>
	<g>
		<path d="M385,54.4V54L351.8,3.2C351,1.2,349,0,346.6,0H45.8c-2,0-3.6,0.8-4.8,2.8L7.8,53.6C7.4,54,7.4,54.4,7,55.2c0,0,0,0,0,0.4    c0,0.4-0.4,1.2-0.4,1.6v65.2c0,2.8,2.8,5.2,6,5.2h13.2v258.8c0,3.2,2.4,5.6,5.6,5.6H361c3.2,0,5.6-2.4,5.6-5.6V127.6h13.2    c3.2,0,5.6-2.4,5.6-5.6V56.8c0-0.4,0-0.4,0-0.4c0-0.4,0-0.8,0-0.8C385.4,55.2,385,54.8,385,54.4z M49,11.2h294.4L369,50.8H23.4    L49,11.2z M37,380.8V127.6h318v253.2H37z M361,116H31.4H18.2V62.4h355.6V116H361z" data-original="#000000" class="active-path" data-old_color="#000000" fill="#D50000"/>
	</g>
</g><g>
	<g>
		<path d="M252.2,153.6l-0.4-0.4c-3.2-3.2-8-5.6-13.2-5.6h-84.4c-5.2,0-9.6,2-13.2,5.6c-3.2,3.2-5.6,8-5.6,13.2c0,5.2,2,10,5.6,13.2    c3.2,3.2,8,5.6,13.2,5.6h84.4c5.2,0,9.6-2,13.2-5.6c3.2-3.2,5.6-8,5.6-13.2C257.4,161.6,255.4,156.8,252.2,153.6z M243.4,171.6    c-1.2,1.2-3.2,2-4.8,2h-84.4c-2,0-3.6-0.8-4.8-2c-1.6-1.6-2.4-3.2-2.4-5.2s0.8-3.6,2-4.8c1.2-1.2,3.2-2,4.8-2h84.4    c2,0,3.6,0.8,4.8,2l0.4,0.4c1.2,1.2,2,2.8,2,4.8S244.6,170.4,243.4,171.6z" data-original="#000000" class="active-path" data-old_color="#000000" fill="#D50000"/>
	</g>
</g></g> </svg>
